<svg xmlns="http://www.w3.org/2000/svg" width="1200" height="390" viewBox="0 0 1200 390" role="img" aria-labelledby="title desc">
  <title id="title">Sujaya's build layers</title>
  <desc id="desc">A working technology set covering interfaces, services, data, cloud infrastructure, and software delivery.</desc>
  <defs><pattern id="grid" width="28" height="28" patternUnits="userSpaceOnUse"><path d="M28 0H0V28" fill="none" stroke="#E0E3DA"/></pattern><style>.m{font-family:ui-monospace,SFMono-Regular,Consolas,"Liberation Mono",monospace}.s{font-family:ui-sans-serif,"Segoe UI",sans-serif}</style></defs>
  <rect width="1200" height="390" rx="24" fill="#F4F3EE"/><rect x="1" y="1" width="1198" height="388" rx="23" fill="none" stroke="#D9DDD3" stroke-width="2"/><rect x="28" y="92" width="1144" height="260" rx="16" fill="url(#grid)" opacity=".68"/>
  <g class="m" fill="#596057" letter-spacing="1.8"><text x="42" y="51" font-size="14">003 / BUILD LAYERS</text><text x="1015" y="51" font-size="13">WORKING SET</text><text x="42" y="75" font-size="11">FROM INTERFACE TO DELIVERY / A COHERENT SYSTEM, NOT A LOGO WALL</text></g>
  <g class="m">
    <g transform="translate(48 116)"><rect width="310" height="92" rx="17" fill="#E9EAE3" stroke="#CBD0C5"/><rect x="7" y="7" width="296" height="78" rx="12" fill="#FAF9F5" stroke="#D9DDD3"/><text x="22" y="33" font-size="10" letter-spacing="1.4" fill="#668C18">01 / INTERFACES</text><text x="22" y="61" font-size="14" fill="#1E221D">FLUTTER &#183; REACT &#183; NEXT.JS</text></g>
    <g transform="translate(378 116)"><rect width="456" height="92" rx="17" fill="#E9EAE3" stroke="#CBD0C5"/><rect x="7" y="7" width="442" height="78" rx="12" fill="#FAF9F5" stroke="#D9DDD3"/><text x="22" y="33" font-size="10" letter-spacing="1.4" fill="#668C18">02 / SERVICES</text><text x="22" y="61" font-size="14" fill="#1E221D">FASTAPI &#183; NODE.JS &#183; SPRING &#183; REST</text></g>
    <g transform="translate(854 116)"><rect width="298" height="92" rx="17" fill="#E9EAE3" stroke="#CBD0C5"/><rect x="7" y="7" width="284" height="78" rx="12" fill="#FAF9F5" stroke="#D9DDD3"/><text x="22" y="33" font-size="10" letter-spacing="1.4" fill="#668C18">03 / DATA</text><text x="22" y="61" font-size="13" fill="#1E221D">POSTGRES &#183; SQLITE &#183; DYNAMO</text></g>
    <g transform="translate(48 228)"><rect width="500" height="108" rx="18" fill="#E4EDCF" stroke="#93A968"/><rect x="7" y="7" width="486" height="94" rx="13" fill="#F7FAF0" stroke="#BAC9A0"/><text x="22" y="35" font-size="10" letter-spacing="1.4" fill="#668C18">04 / CLOUD + INFRASTRUCTURE</text><text x="22" y="65" font-size="16" fill="#30420C">AWS &#183; OCI &#183; DOCKER &#183; TERRAFORM</text><text x="22" y="84" font-size="9" letter-spacing="1.1" fill="#5B6F2F">COMPUTE / STORAGE / EVENTS / REPRODUCIBLE ENVIRONMENTS</text></g>
    <g transform="translate(568 228)"><rect width="584" height="108" rx="18" fill="#E9EAE3" stroke="#CBD0C5"/><rect x="7" y="7" width="570" height="94" rx="13" fill="#FAF9F5" stroke="#D9DDD3"/><text x="22" y="35" font-size="10" letter-spacing="1.4" fill="#668C18">05 / DELIVERY</text><text x="22" y="65" font-size="16" fill="#1E221D">GITHUB ACTIONS &#183; CI/CD &#183; OBSERVABILITY</text><text x="22" y="84" font-size="9" letter-spacing="1.1" fill="#697167">TEST / SCAN / SHIP / SMOKE TEST / ROLLBACK / OBSERVE</text></g>
  </g>
  <g class="m" font-size="10" fill="#747B71" letter-spacing="1.2"><text x="42" y="374">PRODUCT SOFTWARE + CLOUD INFRASTRUCTURE</text><text x="1019" y="374">05 LAYERS</text></g>
</svg>
