<svg xmlns="http://www.w3.org/2000/svg" width="1200" height="470" viewBox="0 0 1200 470" role="img" aria-labelledby="title desc">
  <title id="title">Sujaya Control Plane</title>
  <desc id="desc">Sujaya Mindev, software engineer. Build the app and what it runs on.</desc>
  <defs>
    <pattern id="grid" width="32" height="32" patternUnits="userSpaceOnUse"><path d="M32 0H0V32" fill="none" stroke="#D9DDD3" stroke-width="1"/></pattern>
    <style>.mono{font-family:ui-monospace,SFMono-Regular,Consolas,"Liberation Mono",monospace}.sans{font-family:ui-sans-serif,"Segoe UI",sans-serif}.signal{transform-box:fill-box;transform-origin:center;animation:travel 3.8s cubic-bezier(.45,0,.2,1) infinite}@keyframes travel{0%,12%{transform:translateX(0);opacity:0}25%{opacity:1}82%{opacity:1}100%{transform:translateX(186px);opacity:0}}@media (prefers-reduced-motion:reduce){.signal{animation:none;opacity:.65}}</style>
  </defs>
  <rect width="1200" height="470" rx="28" fill="#F4F3EE"/><rect x="1" y="1" width="1198" height="468" rx="27" fill="none" stroke="#D9DDD3" stroke-width="2"/><path d="M32 96H1168" stroke="#D9DDD3"/><rect x="32" y="112" width="1136" height="326" rx="18" fill="url(#grid)" opacity=".58"/>
  <g class="mono" font-size="15" letter-spacing="2.1" fill="#596057"><text x="48" y="62">SUJAYA // CONTROL PLANE</text><text x="1004" y="62">PROFILE / ACTIVE</text></g><circle cx="978" cy="57" r="5" fill="#668C18"/>
  <g class="sans" fill="#10130F"><text x="64" y="185" font-size="55" font-weight="760" letter-spacing="-2.2">BUILD THE APP.</text><text x="64" y="248" font-size="55" font-weight="760" letter-spacing="-2.2">BUILD WHAT IT</text><text x="64" y="311" font-size="55" font-weight="760" letter-spacing="-2.2">RUNS ON.</text></g>
  <g class="mono" fill="#596057" font-size="14" letter-spacing="1.6"><text x="66" y="362">SOFTWARE ENGINEERING</text><text x="66" y="390">APPLICATIONS + INFRASTRUCTURE + DELIVERY</text></g>
  <g transform="translate(706 147)"><rect width="400" height="236" rx="22" fill="#E9EAE3" stroke="#CDD2C7"/><rect x="10" y="10" width="380" height="216" rx="15" fill="#F8F7F3" stroke="#D9DDD3"/>
    <g class="mono" font-size="12" letter-spacing="1.6" fill="#596057"><text x="28" y="39">SYSTEM MAP / 04 LAYERS</text><text x="332" y="39">001</text></g>
    <g fill="none" stroke="#AEB5A8" stroke-width="1.5"><path d="M55 113H345"/><path d="M115 113v63h170v-63" stroke-dasharray="4 5"/></g>
    <g class="mono" text-anchor="middle"><g transform="translate(55 90)"><rect x="-34" y="-20" width="68" height="46" rx="9" fill="#F1F1EA" stroke="#BFC6BA"/><text y="5" font-size="11" fill="#20251F">CLIENT</text></g><g transform="translate(152 90)"><rect x="-34" y="-20" width="68" height="46" rx="9" fill="#F1F1EA" stroke="#BFC6BA"/><text y="5" font-size="11" fill="#20251F">SERVICE</text></g><g transform="translate(248 90)"><rect x="-34" y="-20" width="68" height="46" rx="9" fill="#F1F1EA" stroke="#BFC6BA"/><text y="5" font-size="11" fill="#20251F">DATA</text></g><g transform="translate(345 90)"><rect x="-34" y="-20" width="68" height="46" rx="9" fill="#EAF3D9" stroke="#8DA94D"/><text y="5" font-size="11" fill="#3D520D">CLOUD</text></g></g>
    <circle class="signal" cx="61" cy="113" r="4" fill="#668C18"/><g class="mono" text-anchor="middle" font-size="10" fill="#737A70" letter-spacing="1.2"><text x="115" y="199">DESIGN</text><text x="200" y="199">SHIP</text><text x="285" y="199">OBSERVE</text></g><g fill="#668C18"><circle cx="115" cy="176" r="3"/><circle cx="200" cy="176" r="3"/><circle cx="285" cy="176" r="3"/></g>
  </g>
  <g class="mono" font-size="11" letter-spacing="1.4" fill="#747B71"><text x="64" y="427">PRODUCT / API / DATA / CLOUD</text><text x="978" y="427">SUJAYA.DEV &#8599;</text></g>
</svg>
